<svg width="1584" height="396" viewBox="0 0 1584 396" fill="none" xmlns="http://www.w3.org/2000/svg">
<g clip-path="url(#clip0)">
<rect width="1584" height="396" fill="white"/>
<path d="M652.859 136H646.074V112.34H620.27V136H613.52V84.8125H620.27V106.82H646.074V84.8125H652.859V136ZM679.613 136.703C674.457 136.703 670.262 135.016 667.027 131.641C663.793 128.242 662.176 123.707 662.176 118.035V116.84C662.176 113.066 662.891 109.703 664.32 106.75C665.773 103.773 667.789 101.453 670.367 99.7891C672.969 98.1016 675.781 97.2578 678.805 97.2578C683.75 97.2578 687.594 98.8867 690.336 102.145C693.078 105.402 694.449 110.066 694.449 116.137V118.844H668.68C668.773 122.594 669.863 125.629 671.949 127.949C674.059 130.246 676.73 131.395 679.965 131.395C682.262 131.395 684.207 130.926 685.801 129.988C687.395 129.051 688.789 127.809 689.984 126.262L693.957 129.355C690.77 134.254 685.988 136.703 679.613 136.703ZM678.805 102.602C676.18 102.602 673.977 103.562 672.195 105.484C670.414 107.383 669.312 110.055 668.891 113.5H687.945V113.008C687.758 109.703 686.867 107.148 685.273 105.344C683.68 103.516 681.523 102.602 678.805 102.602ZM709.074 136H702.57V82H709.074V136ZM726.582 136H720.078V82H726.582V136ZM735.301 116.629C735.301 112.902 736.027 109.551 737.48 106.574C738.957 103.598 740.996 101.301 743.598 99.6836C746.223 98.0664 749.211 97.2578 752.562 97.2578C757.742 97.2578 761.926 99.0508 765.113 102.637C768.324 106.223 769.93 110.992 769.93 116.945V117.402C769.93 121.105 769.215 124.434 767.785 127.387C766.379 130.316 764.352 132.602 761.703 134.242C759.078 135.883 756.055 136.703 752.633 136.703C747.477 136.703 743.293 134.91 740.082 131.324C736.895 127.738 735.301 122.992 735.301 117.086V116.629ZM741.84 117.402C741.84 121.621 742.812 125.008 744.758 127.562C746.727 130.117 749.352 131.395 752.633 131.395C755.938 131.395 758.562 130.105 760.508 127.527C762.453 124.926 763.426 121.293 763.426 116.629C763.426 112.457 762.43 109.082 760.438 106.504C758.469 103.902 755.844 102.602 752.562 102.602C749.352 102.602 746.762 103.879 744.793 106.434C742.824 108.988 741.84 112.645 741.84 117.402ZM808.004 119.863L808.988 126.613L810.43 120.531L820.555 84.8125H826.25L836.129 120.531L837.535 126.719L838.625 119.828L846.57 84.8125H853.355L840.945 136H834.793L824.246 98.6992L823.438 94.7969L822.629 98.6992L811.695 136H805.543L793.168 84.8125H799.918L808.004 119.863ZM857.012 116.629C857.012 112.902 857.738 109.551 859.191 106.574C860.668 103.598 862.707 101.301 865.309 99.6836C867.934 98.0664 870.922 97.2578 874.273 97.2578C879.453 97.2578 883.637 99.0508 886.824 102.637C890.035 106.223 891.641 110.992 891.641 116.945V117.402C891.641 121.105 890.926 124.434 889.496 127.387C888.09 130.316 886.062 132.602 883.414 134.242C880.789 135.883 877.766 136.703 874.344 136.703C869.188 136.703 865.004 134.91 861.793 131.324C858.605 127.738 857.012 122.992 857.012 117.086V116.629ZM863.551 117.402C863.551 121.621 864.523 125.008 866.469 127.562C868.438 130.117 871.062 131.395 874.344 131.395C877.648 131.395 880.273 130.105 882.219 127.527C884.164 124.926 885.137 121.293 885.137 116.629C885.137 112.457 884.141 109.082 882.148 106.504C880.18 103.902 877.555 102.602 874.273 102.602C871.062 102.602 868.473 103.879 866.504 106.434C864.535 108.988 863.551 112.645 863.551 117.402ZM918.184 103.797C917.199 103.633 916.133 103.551 914.984 103.551C910.719 103.551 907.824 105.367 906.301 109V136H899.797V97.9609H906.125L906.23 102.355C908.363 98.957 911.387 97.2578 915.301 97.2578C916.566 97.2578 917.527 97.4219 918.184 97.75V103.797ZM931.262 136H924.758V82H931.262V136ZM940.121 116.664C940.121 110.828 941.504 106.141 944.27 102.602C947.035 99.0391 950.656 97.2578 955.133 97.2578C959.586 97.2578 963.113 98.7812 965.715 101.828V82H972.219V136H966.242L965.926 131.922C963.324 135.109 959.703 136.703 955.062 136.703C950.656 136.703 947.059 134.898 944.27 131.289C941.504 127.68 940.121 122.969 940.121 117.156V116.664ZM946.625 117.402C946.625 121.715 947.516 125.09 949.297 127.527C951.078 129.965 953.539 131.184 956.68 131.184C960.805 131.184 963.816 129.332 965.715 125.629V108.156C963.77 104.57 960.781 102.777 956.75 102.777C953.562 102.777 951.078 104.008 949.297 106.469C947.516 108.93 946.625 112.574 946.625 117.402Z" fill="#56CCF2"/>
<path d="M570.125 241H561.125V172.75H570.125V241ZM585.875 191.969L580.953 188.594C583.859 184.531 585.359 180.25 585.453 175.75V169H594.031V175.094C594 178.219 593.219 181.344 591.688 184.469C590.188 187.562 588.25 190.062 585.875 191.969ZM611.703 190.281L611.938 195.906C615.656 191.531 620.672 189.344 626.984 189.344C634.078 189.344 638.906 192.062 641.469 197.5C643.156 195.062 645.344 193.094 648.031 191.594C650.75 190.094 653.953 189.344 657.641 189.344C668.766 189.344 674.422 195.234 674.609 207.016V241H665.938V207.531C665.938 203.906 665.109 201.203 663.453 199.422C661.797 197.609 659.016 196.703 655.109 196.703C651.891 196.703 649.219 197.672 647.094 199.609C644.969 201.516 643.734 204.094 643.391 207.344V241H634.672V207.766C634.672 200.391 631.062 196.703 623.844 196.703C618.156 196.703 614.266 199.125 612.172 203.969V241H603.5V190.281H611.703ZM750.594 223.188H722L715.578 241H706.297L732.359 172.75H740.234L766.344 241H757.109L750.594 223.188ZM724.719 215.781H747.922L736.297 183.859L724.719 215.781ZM798.688 198.062C797.375 197.844 795.953 197.734 794.422 197.734C788.734 197.734 784.875 200.156 782.844 205V241H774.172V190.281H782.609L782.75 196.141C785.594 191.609 789.625 189.344 794.844 189.344C796.531 189.344 797.812 189.562 798.688 190V198.062ZM820.859 217.516L815.422 223.188V241H806.75V169H815.422V212.547L820.062 206.969L835.859 190.281H846.406L826.672 211.469L848.703 241H838.531L820.859 217.516ZM886.672 241C886.172 240 885.766 238.219 885.453 235.656C881.422 239.844 876.609 241.938 871.016 241.938C866.016 241.938 861.906 240.531 858.688 237.719C855.5 234.875 853.906 231.281 853.906 226.938C853.906 221.656 855.906 217.562 859.906 214.656C863.938 211.719 869.594 210.25 876.875 210.25H885.312V206.266C885.312 203.234 884.406 200.828 882.594 199.047C880.781 197.234 878.109 196.328 874.578 196.328C871.484 196.328 868.891 197.109 866.797 198.672C864.703 200.234 863.656 202.125 863.656 204.344H854.938C854.938 201.812 855.828 199.375 857.609 197.031C859.422 194.656 861.859 192.781 864.922 191.406C868.016 190.031 871.406 189.344 875.094 189.344C880.938 189.344 885.516 190.812 888.828 193.75C892.141 196.656 893.859 200.672 893.984 205.797V229.141C893.984 233.797 894.578 237.5 895.766 240.25V241H886.672ZM872.281 234.391C875 234.391 877.578 233.688 880.016 232.281C882.453 230.875 884.219 229.047 885.312 226.797V216.391H878.516C867.891 216.391 862.578 219.5 862.578 225.719C862.578 228.438 863.484 230.562 865.297 232.094C867.109 233.625 869.438 234.391 872.281 234.391ZM905.469 215.219C905.469 207.438 907.312 201.188 911 196.469C914.688 191.719 919.516 189.344 925.484 189.344C931.422 189.344 936.125 191.375 939.594 195.438V169H948.266V241H940.297L939.875 235.562C936.406 239.812 931.578 241.938 925.391 241.938C919.516 241.938 914.719 239.531 911 234.719C907.312 229.906 905.469 223.625 905.469 215.875V215.219ZM914.141 216.203C914.141 221.953 915.328 226.453 917.703 229.703C920.078 232.953 923.359 234.578 927.547 234.578C933.047 234.578 937.062 232.109 939.594 227.172V203.875C937 199.094 933.016 196.703 927.641 196.703C923.391 196.703 920.078 198.344 917.703 201.625C915.328 204.906 914.141 209.766 914.141 216.203ZM971.188 241H962.516V190.281H971.188V241ZM961.812 176.828C961.812 175.422 962.234 174.234 963.078 173.266C963.953 172.297 965.234 171.812 966.922 171.812C968.609 171.812 969.891 172.297 970.766 173.266C971.641 174.234 972.078 175.422 972.078 176.828C972.078 178.234 971.641 179.406 970.766 180.344C969.891 181.281 968.609 181.75 966.922 181.75C965.234 181.75 963.953 181.281 963.078 180.344C962.234 179.406 961.812 178.234 961.812 176.828ZM1027.95 216.203C1027.95 223.922 1026.19 230.141 1022.66 234.859C1019.12 239.578 1014.34 241.938 1008.31 241.938C1002.16 241.938 997.312 239.984 993.781 236.078V260.5H985.109V190.281H993.031L993.453 195.906C996.984 191.531 1001.89 189.344 1008.17 189.344C1014.27 189.344 1019.08 191.641 1022.61 196.234C1026.17 200.828 1027.95 207.219 1027.95 215.406V216.203ZM1019.28 215.219C1019.28 209.5 1018.06 204.984 1015.62 201.672C1013.19 198.359 1009.84 196.703 1005.59 196.703C1000.34 196.703 996.406 199.031 993.781 203.688V227.922C996.375 232.547 1000.34 234.859 1005.69 234.859C1009.84 234.859 1013.14 233.219 1015.58 229.938C1018.05 226.625 1019.28 221.719 1019.28 215.219Z" fill="#2F80ED"/>
<g filter="url(#filter0_d)">
<path d="M403.5 395.5L-0.5 59.5V395.5H403.5Z" fill="#C4C4C4"/>
</g>
<g filter="url(#filter1_i)">
<path d="M0 396V179.083L257.093 396H0Z" fill="#27AE60"/>
</g>
<g filter="url(#filter2_d)">
<path d="M-1 210V-1H251L-1 210Z" fill="#F2C94C"/>
</g>
<path d="M598.664 367.241V348.896H612.837V347.823H598.664V331.088H613.733V330.015H598V368.314H613.866V367.241H598.664ZM626.645 340.743L620.77 353.241L615.028 340.743H614.165L620.372 354.046L613.567 368.313H614.364L620.77 354.85L627.209 368.313H628.039L621.201 354.045L627.441 340.742L626.645 340.743ZM630.031 377.754V360.59H630.097C630.495 363.093 631.281 365.105 632.454 366.624C633.626 368.144 635.12 368.904 636.935 368.904C638.107 368.904 639.147 368.52 640.055 367.751C640.962 366.982 641.72 365.936 642.328 364.613C642.937 363.29 643.402 361.752 643.722 360C644.043 358.248 644.204 356.406 644.204 354.475C644.204 352.401 644.038 350.488 643.706 348.736C643.374 346.983 642.893 345.463 642.262 344.176C641.631 342.889 640.868 341.887 639.972 341.173C639.076 340.457 638.063 340.099 636.935 340.099C636.072 340.099 635.269 340.305 634.528 340.716C633.787 341.128 633.129 341.709 632.553 342.46C631.975 343.217 631.471 344.112 631.06 345.115C630.639 346.134 630.318 347.251 630.097 348.467H630.031V340.743H629.367V377.754H630.031ZM636.935 367.885C634.855 367.885 633.184 366.731 631.923 364.425C630.661 362.118 630.031 358.802 630.031 354.475C630.031 352.687 630.186 350.988 630.495 349.379C630.805 347.77 631.253 346.357 631.839 345.141C632.426 343.925 633.151 342.96 634.014 342.245C634.877 341.53 635.85 341.172 636.935 341.172C638.041 341.172 639.009 341.53 639.839 342.245C640.669 342.96 641.355 343.934 641.897 345.168C642.439 346.402 642.848 347.815 643.125 349.406C643.402 350.997 643.54 352.687 643.54 354.475C643.54 356.084 643.413 357.684 643.158 359.275C642.904 360.867 642.511 362.297 641.98 363.567C641.449 364.836 640.768 365.873 639.939 366.678C639.109 367.482 638.107 367.885 636.935 367.885ZM647.855 368.314V352.705C647.855 351.203 647.988 349.736 648.253 348.306C648.519 346.876 648.928 345.615 649.481 344.525C650.035 343.434 650.737 342.576 651.589 341.95C652.441 341.324 653.453 341.065 654.626 341.172V340.099C653.608 340.064 652.718 340.242 651.954 340.636C651.191 341.029 650.532 341.565 649.979 342.245C649.426 342.924 648.983 343.72 648.652 344.632C648.32 345.542 648.074 346.528 647.921 347.555H647.855V340.743H647.191V368.314L647.855 368.314ZM655.456 354.743H669.729C669.773 352.847 669.657 351.024 669.38 349.272C669.104 347.519 668.661 345.964 668.052 344.605C667.444 343.246 666.658 342.155 665.696 341.333C664.733 340.51 663.588 340.099 662.26 340.099C661.309 340.099 660.379 340.421 659.472 341.065C658.565 341.709 657.768 342.647 657.082 343.881C656.396 345.114 655.843 346.625 655.423 348.414C655.002 350.201 654.792 352.24 654.792 354.528C654.792 356.567 654.936 358.471 655.224 360.241C655.511 362.011 655.954 363.549 656.551 364.854C657.149 366.159 657.918 367.169 658.858 367.885C659.798 368.6 660.933 368.94 662.26 368.904C664.208 368.904 665.845 368.018 667.173 366.249C668.501 364.478 669.286 361.984 669.529 358.766H668.866C668.578 361.806 667.842 364.085 666.658 365.605C665.474 367.125 663.986 367.885 662.194 367.885C660.977 367.885 659.948 367.545 659.107 366.866C658.266 366.186 657.58 365.256 657.049 364.076C656.518 362.896 656.125 361.51 655.871 359.919C655.616 358.328 655.478 356.602 655.456 354.743ZM669.065 353.67H655.456C655.522 351.739 655.744 350.005 656.12 348.467C656.496 346.929 656.988 345.615 657.597 344.525C658.205 343.434 658.914 342.603 659.721 342.03C660.529 341.458 661.397 341.172 662.327 341.172C663.433 341.172 664.407 341.503 665.248 342.164C666.088 342.826 666.791 343.729 667.355 344.873C667.92 346.017 668.346 347.35 668.633 348.869C668.921 350.389 669.065 351.99 669.065 353.67ZM683.503 348.896H684.167C684.167 345.821 683.614 343.586 682.508 342.191C681.401 340.796 679.896 340.099 677.994 340.099C676.931 340.099 676.035 340.314 675.305 340.743C674.575 341.172 673.977 341.726 673.512 342.406C673.048 343.085 672.716 343.836 672.517 344.659C672.318 345.481 672.218 346.268 672.218 347.019C672.218 348.521 672.384 349.719 672.716 350.613C673.048 351.507 673.568 352.204 674.276 352.705C674.763 353.062 675.316 353.384 675.936 353.67C676.555 353.956 677.274 354.26 678.093 354.582C678.823 354.868 679.542 355.154 680.251 355.44C680.959 355.726 681.584 356.111 682.126 356.593C682.668 357.076 683.111 357.693 683.454 358.444C683.797 359.195 683.968 360.178 683.968 361.394C683.968 362.574 683.797 363.576 683.454 364.398C683.114 365.216 682.666 365.903 682.143 366.41C681.612 366.928 681.019 367.303 680.367 367.536C679.714 367.768 679.078 367.885 678.458 367.885C676.445 367.885 674.901 367.16 673.828 365.712C672.755 364.264 672.218 361.984 672.218 358.873H671.554C671.554 362.342 672.135 364.881 673.297 366.49C674.459 368.099 676.179 368.904 678.458 368.904C679.188 368.904 679.924 368.77 680.666 368.501C681.407 368.233 682.071 367.795 682.657 367.187C683.238 366.588 683.727 365.78 684.084 364.827C684.449 363.861 684.632 362.682 684.632 361.287C684.632 359.964 684.471 358.891 684.151 358.068C683.83 357.246 683.409 356.567 682.889 356.03C682.369 355.494 681.783 355.074 681.13 354.77C680.474 354.464 679.815 354.169 679.155 353.884C678.343 353.54 677.529 353.2 676.716 352.866C676.019 352.579 675.371 352.24 674.774 351.846C674.199 351.453 673.739 350.89 673.396 350.157C673.053 349.424 672.882 348.378 672.882 347.019C672.882 346.769 672.926 346.321 673.015 345.678C673.103 345.034 673.313 344.381 673.645 343.72C673.977 343.058 674.486 342.468 675.172 341.95C675.858 341.431 676.799 341.172 677.994 341.172C678.812 341.172 679.559 341.315 680.234 341.601C680.909 341.887 681.49 342.343 681.976 342.969C682.463 343.595 682.839 344.39 683.105 345.356C683.371 346.322 683.503 347.502 683.503 348.896ZM698.871 348.896H699.535C699.535 345.821 698.982 343.586 697.876 342.191C696.769 340.796 695.265 340.099 693.361 340.099C692.299 340.099 691.403 340.314 690.673 340.743C689.943 341.172 689.345 341.726 688.881 342.406C688.416 343.085 688.084 343.836 687.885 344.659C687.685 345.481 687.586 346.268 687.586 347.019C687.586 348.521 687.752 349.719 688.084 350.613C688.416 351.507 688.936 352.204 689.644 352.705C690.131 353.062 690.684 353.384 691.303 353.67C691.923 353.956 692.642 354.26 693.461 354.582C694.191 354.868 694.911 355.154 695.619 355.44C696.327 355.726 696.952 356.111 697.494 356.593C698.036 357.076 698.479 357.693 698.822 358.444C699.165 359.195 699.336 360.178 699.336 361.394C699.336 362.574 699.165 363.576 698.822 364.398C698.482 365.216 698.034 365.903 697.511 366.41C696.979 366.928 696.388 367.303 695.735 367.536C695.082 367.768 694.446 367.885 693.826 367.885C691.813 367.885 690.269 367.16 689.196 365.712C688.123 364.264 687.586 361.984 687.586 358.873H686.922C686.922 362.342 687.503 364.881 688.665 366.49C689.826 368.099 691.547 368.904 693.826 368.904C694.557 368.904 695.292 368.77 696.034 368.501C696.775 368.233 697.439 367.795 698.025 367.187C698.606 366.588 699.095 365.78 699.452 364.827C699.818 363.861 700 362.682 700 361.287C700 359.964 699.84 358.891 699.519 358.068C699.198 357.246 698.778 356.567 698.257 356.03C697.737 355.494 697.151 355.074 696.498 354.77C695.842 354.464 695.183 354.169 694.523 353.884C693.711 353.54 692.898 353.2 692.084 352.866C691.387 352.579 690.739 352.24 690.142 351.846C689.567 351.453 689.107 350.89 688.764 350.157C688.421 349.424 688.25 348.378 688.25 347.019C688.25 346.769 688.294 346.321 688.383 345.678C688.471 345.034 688.682 344.381 689.013 343.72C689.345 343.058 689.854 342.468 690.54 341.95C691.226 341.431 692.167 341.172 693.362 341.172C694.18 341.172 694.927 341.315 695.602 341.601C696.277 341.887 696.858 342.343 697.345 342.969C697.832 343.595 698.208 344.39 698.473 345.356C698.739 346.322 698.871 347.502 698.871 348.896Z" fill="#95A4A6"/>
<path fill-rule="evenodd" clip-rule="evenodd" d="M550.076 349.879C549.946 349.909 549.816 350.243 549.816 350.425C549.79 351.638 549.765 354.854 549.765 357.038C549.765 357.098 549.842 357.22 549.92 357.22C550.309 357.25 551.244 357.28 552.048 357.28C553.164 357.28 553.813 357.098 554.177 356.917C555.111 356.37 555.552 355.187 555.552 353.883C555.552 350.941 553.787 349.818 551.166 349.818C550.984 349.788 550.465 349.788 550.076 349.879V349.879ZM556.772 363.438C556.772 360.435 554.877 358.767 551.451 358.767C551.296 358.767 550.206 358.736 549.946 358.797C549.868 358.828 549.765 358.888 549.765 358.979C549.765 361.133 549.738 364.561 549.816 365.896C549.868 366.472 550.232 367.291 550.673 367.534C551.14 367.837 552.204 367.897 552.931 367.897C554.981 367.897 556.772 366.563 556.772 363.438V363.438ZM544.781 348.211C545.041 348.211 545.819 348.301 547.818 348.301C549.712 348.301 551.218 348.241 553.06 348.241C555.318 348.241 558.433 349.181 558.433 353.125C558.433 355.066 557.265 356.613 555.734 357.372C555.656 357.402 555.656 357.462 555.734 357.493C557.914 358.13 559.835 359.707 559.835 362.68C559.835 365.592 558.277 367.443 556.019 368.595C554.644 369.293 552.931 369.535 551.192 369.535C549.868 369.535 546.312 369.354 544.34 369.415C544.132 369.323 544.522 368.231 544.703 368.049C545.171 368.019 545.534 367.989 546.027 367.806C546.728 367.594 546.805 367.351 546.909 366.108C546.961 365.046 546.961 361.284 546.961 358.615C546.961 354.945 546.987 352.457 546.961 351.244C546.935 350.304 546.65 350 546.079 349.818C545.637 349.727 544.911 349.606 544.314 349.515C544.184 349.363 544.625 348.332 544.781 348.211ZM529.805 367.079C530.429 367.655 531.648 367.897 532.738 367.897C534.14 367.897 535.541 367.594 536.891 366.168C538.267 364.713 539.227 362.468 539.227 358.888C539.227 355.46 538.111 352.669 535.827 351.032C534.529 350.091 532.868 349.697 530.947 349.697C530.377 349.697 529.831 349.727 529.494 349.909C529.416 349.97 529.235 350.243 529.235 350.394C529.183 351.001 529.183 355.673 529.183 358.403C529.183 361.224 529.183 365.168 529.235 365.622C529.235 366.078 529.416 366.775 529.806 367.079H529.805ZM523.914 348.21C524.407 348.21 526.301 348.301 527.21 348.301C528.845 348.301 530.013 348.211 533.102 348.211C535.697 348.211 537.877 349.029 539.434 350.576C541.329 352.488 542.316 355.127 542.316 358.342C542.316 362.923 540.525 365.562 538.734 367.079C536.943 368.626 534.607 369.535 531.285 369.535C529.52 369.535 526.483 369.475 523.966 369.444H523.94C523.81 369.172 524.147 368.11 524.355 368.08C525.03 367.989 525.212 367.958 525.549 367.807C526.094 367.564 526.198 367.23 526.276 366.108C526.354 364.015 526.328 361.497 526.328 358.645C526.328 356.613 526.354 352.639 526.302 351.365C526.224 350.304 525.835 350.03 525.056 349.848C524.667 349.758 524.147 349.636 523.421 349.545C523.317 349.333 523.784 348.392 523.914 348.211V348.21Z" fill="#E5E5E5"/>
<path fill-rule="evenodd" clip-rule="evenodd" d="M492.509 368.261C491.86 368.17 491.393 368.049 490.822 367.746C490.744 367.685 490.614 367.382 490.614 367.26C490.563 366.199 490.563 363.165 490.563 361.133C490.563 359.495 490.329 358.069 489.732 357.068C489.031 355.915 488.019 355.248 486.721 355.248C485.58 355.248 484.048 356.158 482.776 357.432C482.75 357.462 482.543 357.675 482.569 357.341C482.569 357.007 482.621 356.34 482.647 355.885C482.673 355.46 482.465 355.248 482.465 355.248C481.634 355.733 479.299 356.37 478.442 356.461C477.819 356.613 477.663 357.311 478.313 357.553H478.338C479.039 357.796 479.506 358.069 479.869 358.342C480.129 358.585 480.103 358.919 480.103 359.192C480.129 361.466 480.129 364.955 480.051 366.866C480.025 367.625 479.844 367.897 479.376 368.019L479.428 367.989C479.065 368.08 478.78 368.17 478.338 368.231C478.182 368.413 478.182 369.384 478.338 369.596C478.624 369.596 480.129 369.505 481.375 369.505C483.088 369.505 483.971 369.596 484.412 369.596C484.593 369.354 484.645 368.443 484.541 368.231C484.048 368.201 483.685 368.14 483.348 368.019C482.88 367.897 482.75 367.625 482.724 366.988C482.673 365.38 482.673 361.982 482.673 359.677C482.673 359.04 482.828 358.736 482.984 358.554C483.581 357.948 484.541 357.523 485.398 357.523C486.228 357.523 486.773 357.827 487.189 358.221C487.76 358.767 487.941 359.556 488.019 360.132C488.149 361.436 488.097 364.015 488.097 366.259C488.097 367.473 488.019 367.776 487.63 367.928C487.448 368.019 486.981 368.14 486.436 368.201C486.254 368.413 486.306 369.354 486.436 369.566C487.189 369.566 488.071 369.475 489.369 369.475C490.978 369.475 492.016 369.566 492.432 369.566C492.561 369.384 492.613 368.504 492.509 368.261V368.261ZM499.699 356.674C498.323 356.674 497.467 357.918 497.467 359.859C497.467 361.831 498.219 364.106 500.347 364.106C500.711 364.106 501.386 363.924 501.697 363.499C502.19 362.953 502.528 361.861 502.528 360.708C502.528 358.19 501.463 356.674 499.699 356.674V356.674ZM499.517 370.081C498.998 370.081 498.634 370.264 498.401 370.415C497.311 371.234 496.818 372.023 496.818 372.964C496.818 373.843 497.103 374.541 497.726 375.147C498.479 375.906 499.517 376.27 500.84 376.27C503.488 376.27 504.656 374.601 504.656 372.964C504.656 371.811 504.163 371.052 503.151 370.628C502.424 370.264 501.1 370.081 499.517 370.081V370.081ZM499.699 377.969C498.115 377.969 496.973 377.574 495.987 376.695C495.027 375.845 494.612 374.571 494.612 373.691C494.612 373.449 494.664 372.781 495.131 372.175C495.416 371.811 496.039 371.113 497.519 369.93C497.57 369.9 497.596 369.869 497.596 369.808C497.596 369.748 497.544 369.687 497.492 369.657C496.273 369.111 495.909 368.231 495.805 367.746V367.685C495.78 367.503 495.728 367.321 495.961 367.139C496.143 366.988 496.403 366.805 496.688 366.593C497.129 366.29 497.596 365.956 497.882 365.683C497.934 365.622 497.934 365.562 497.934 365.501C497.934 365.44 497.882 365.38 497.83 365.35C496.013 364.652 495.105 363.074 495.105 360.708C495.105 359.161 495.702 357.766 496.766 356.886C497.492 356.219 499.309 355.4 500.503 355.4H500.581C501.801 355.43 502.476 355.733 503.436 356.128C503.955 356.34 504.448 356.431 505.123 356.431C506.135 356.431 506.577 356.067 506.94 355.643C506.966 355.703 507.018 355.855 507.044 356.249C507.07 356.644 506.966 357.22 506.706 357.644C506.499 357.978 506.031 358.221 505.564 358.221H505.434C504.967 358.16 504.759 358.099 504.759 358.099L504.656 358.16C504.63 358.221 504.656 358.282 504.682 358.373L504.708 358.433C504.76 358.706 504.863 359.525 504.863 359.738C504.863 362.225 504.007 363.317 503.099 364.136C502.216 364.894 501.204 365.38 500.062 365.501C500.036 365.501 499.933 365.501 499.699 365.531C499.569 365.531 499.387 365.562 499.361 365.562H499.335C499.128 365.622 498.609 365.926 498.609 366.441C498.609 366.896 498.842 367.443 499.958 367.534C500.192 367.564 500.425 367.564 500.685 367.594C502.164 367.715 504.007 367.867 504.863 368.201C506.057 368.716 506.81 369.96 506.81 371.447C506.81 373.692 505.435 375.785 503.151 377.089C502.035 377.665 500.918 377.969 499.699 377.969V377.969ZM514.492 356.826C513.948 356.826 513.454 356.977 513.091 357.28C512.079 358.008 511.56 359.465 511.56 361.588C511.56 365.562 513.273 368.353 515.712 368.353C516.439 368.353 517.01 368.11 517.503 367.625C518.256 366.896 518.645 365.44 518.645 363.408C518.645 359.465 516.958 356.825 514.493 356.825L514.492 356.826ZM514.96 369.809C510.548 369.809 508.964 366.017 508.964 362.468C508.964 359.98 509.821 358.069 511.534 356.704C512.754 355.824 514.207 355.339 515.505 355.339C518.879 355.339 521.241 358.16 521.241 362.225C521.241 364.985 520.306 367.169 518.515 368.504C517.659 369.172 516.18 369.809 514.959 369.809H514.96V369.809ZM468.709 356.825C468.164 356.825 467.671 356.977 467.308 357.28C466.296 358.008 465.776 359.465 465.776 361.588C465.776 365.562 467.489 368.353 469.929 368.353C470.656 368.353 471.227 368.11 471.72 367.625C472.472 366.896 472.862 365.44 472.862 363.408C472.862 359.465 471.201 356.825 468.709 356.825ZM469.176 369.809C464.764 369.809 463.181 366.017 463.181 362.468C463.181 359.98 464.037 358.069 465.75 356.704C466.97 355.824 468.424 355.339 469.722 355.339C473.096 355.339 475.457 358.16 475.457 362.225C475.457 364.985 474.523 367.169 472.732 368.504C471.902 369.172 470.422 369.809 469.176 369.809ZM439.511 369.505C439.459 369.415 439.407 369.141 439.433 368.808C439.433 368.565 439.485 368.413 439.511 368.353C440.056 368.261 440.341 368.17 440.653 368.08C441.172 367.928 441.379 367.594 441.405 366.836C441.483 365.016 441.483 361.558 441.457 359.161V359.1C441.457 358.828 441.457 358.494 441.172 358.251C440.756 357.948 440.263 357.675 439.615 357.462C439.381 357.372 439.225 357.22 439.251 357.038C439.251 356.856 439.407 356.644 439.745 356.583C440.601 356.492 442.833 355.855 443.715 355.4C443.767 355.46 443.845 355.643 443.845 355.885L443.819 356.219C443.793 356.552 443.767 356.947 443.767 357.341C443.767 357.462 443.871 357.553 443.975 357.553C444.027 357.553 444.079 357.523 444.131 357.493C445.792 355.976 447.297 355.43 448.075 355.43C449.348 355.43 450.334 356.128 451.086 357.584C451.138 357.675 451.19 357.705 451.268 357.705C451.32 357.705 451.398 357.675 451.424 357.614C452.955 356.249 454.487 355.43 455.498 355.43C457.912 355.43 459.34 357.523 459.34 361.072C459.34 362.073 459.34 363.378 459.314 364.561C459.314 365.622 459.288 366.593 459.288 367.291C459.288 367.442 459.469 367.928 459.755 368.019C460.118 368.231 460.612 368.322 461.26 368.443H461.286C461.338 368.656 461.235 369.444 461.131 369.596C460.975 369.596 460.741 369.596 460.482 369.566C459.825 369.526 459.167 369.506 458.509 369.505C456.9 369.505 456.07 369.535 455.265 369.596C455.213 369.354 455.187 368.626 455.265 368.443C455.732 368.353 455.966 368.261 456.251 368.171C456.771 367.989 456.9 367.715 456.926 366.927C456.926 366.351 457.03 361.436 456.874 360.253C456.719 359.04 455.94 357.614 454.227 357.614C453.578 357.614 452.566 357.918 451.58 358.797C451.528 358.858 451.475 359.009 451.475 359.1V359.131C451.58 359.768 451.58 360.496 451.58 361.618V363.59C451.58 364.955 451.553 366.229 451.58 367.2C451.58 367.867 451.917 368.019 452.202 368.14C452.358 368.17 452.462 368.201 452.592 368.231C452.825 368.292 453.059 368.353 453.422 368.443C453.474 368.565 453.474 368.959 453.396 369.293C453.37 369.475 453.318 369.566 453.292 369.596C452.41 369.566 451.502 369.535 450.178 369.535C449.789 369.535 449.114 369.566 448.543 369.566C448.075 369.566 447.634 369.596 447.375 369.596C447.349 369.535 447.297 369.323 447.297 368.989C447.297 368.717 447.349 368.504 447.401 368.443C447.531 368.413 447.634 368.383 447.764 368.383C448.075 368.322 448.335 368.261 448.595 368.201C449.036 368.049 449.192 367.776 449.218 367.109C449.295 365.592 449.373 361.254 449.192 360.162C448.88 358.403 448.024 357.523 446.648 357.523C445.844 357.523 444.831 357.978 444.001 358.707C443.871 358.828 443.767 359.131 443.767 359.404V361.194C443.767 363.378 443.767 366.108 443.793 367.291C443.819 367.655 443.923 368.08 444.52 368.231C444.65 368.261 444.857 368.322 445.117 368.353L445.584 368.443C445.636 368.626 445.61 369.354 445.506 369.596C445.247 369.596 444.935 369.566 444.572 369.566C444.027 369.535 443.326 369.505 442.547 369.505C441.639 369.505 440.99 369.535 440.471 369.566C440.108 369.505 439.822 369.505 439.511 369.505V369.505Z" fill="#A6A385"/>
<path fill-rule="evenodd" clip-rule="evenodd" d="M425.859 376.786L424.795 376.361C424.795 376.361 424.925 370.021 422.978 369.566C421.68 367.806 423.186 294.943 427.858 369.323C427.858 369.323 426.248 370.263 425.963 371.871C425.651 373.449 425.859 376.786 425.859 376.786V376.786Z" fill="white"/>
<path fill-rule="evenodd" clip-rule="evenodd" d="M425.859 376.786L424.795 376.361C424.795 376.361 424.925 370.021 422.978 369.566C421.68 367.806 423.186 294.943 427.858 369.323C427.858 369.323 426.248 370.263 425.963 371.871C425.651 373.449 425.859 376.786 425.859 376.786V376.786Z" fill="#A6A385"/>
<path fill-rule="evenodd" clip-rule="evenodd" d="M426.43 370.658C426.43 370.658 435.748 363.499 433.567 348.604C431.465 337.776 426.508 334.226 425.963 332.861C425.366 331.891 424.795 330.192 424.795 330.192L425.184 360.314C425.184 360.344 424.38 369.536 426.43 370.658" fill="white"/>
<path fill-rule="evenodd" clip-rule="evenodd" d="M426.43 370.658C426.43 370.658 435.748 363.499 433.567 348.604C431.465 337.776 426.508 334.226 425.963 332.861C425.366 331.891 424.795 330.192 424.795 330.192L425.184 360.314C425.184 360.344 424.38 369.536 426.43 370.658" fill="#C4C4C4"/>
<path fill-rule="evenodd" clip-rule="evenodd" d="M424.25 371.052C424.25 371.052 415.503 364.075 416.022 351.79C416.515 339.505 422.692 333.468 423.886 332.376C424.665 331.405 424.691 331.041 424.743 330.07C425.288 331.436 425.184 350.486 425.262 352.73C425.495 361.375 424.847 369.415 424.25 371.052Z" fill="white"/>
<path fill-rule="evenodd" clip-rule="evenodd" d="M424.25 371.052C424.25 371.052 415.503 364.075 416.022 351.79C416.515 339.505 422.692 333.468 423.886 332.376C424.665 331.405 424.691 331.041 424.743 330.07C425.288 331.436 425.184 350.486 425.262 352.73C425.495 361.375 424.847 369.415 424.25 371.052Z" fill="#95A4A6"/>
<path d="M852.665 372.375C852.474 372.375 852.284 372.319 852.112 372.225L850.372 371.156C850.109 371.006 850.236 370.95 850.327 370.922C850.671 370.8 850.743 370.772 851.115 370.547C851.151 370.528 851.206 370.538 851.242 370.556L852.583 371.381C852.628 371.409 852.701 371.409 852.746 371.381L857.984 368.25C858.03 368.222 858.066 368.166 858.066 368.1V361.847C858.066 361.781 858.039 361.725 857.984 361.697L852.746 358.575C852.701 358.547 852.638 358.547 852.583 358.575L847.345 361.697C847.291 361.725 847.263 361.791 847.263 361.847V368.1C847.263 368.156 847.3 368.213 847.345 368.241L848.777 369.094C849.556 369.497 850.037 369.019 850.037 368.55V362.372C850.037 362.288 850.1 362.213 850.191 362.213H850.852C850.934 362.213 851.006 362.278 851.006 362.372V368.55C851.006 369.628 850.444 370.238 849.457 370.238C849.158 370.238 848.913 370.238 848.251 369.9L846.874 369.084C846.538 368.878 846.321 368.503 846.321 368.1V361.847C846.321 361.444 846.529 361.059 846.874 360.863L852.112 357.731C852.447 357.534 852.882 357.534 853.208 357.731L858.447 360.863C858.782 361.069 858.999 361.444 858.999 361.847V368.1C858.999 368.503 858.791 368.888 858.447 369.084L853.208 372.216C853.054 372.319 852.864 372.375 852.665 372.375V372.375ZM856.897 366.206C856.897 365.034 856.136 364.725 854.522 364.5C852.891 364.275 852.728 364.163 852.728 363.769C852.728 363.441 852.864 363.009 854.069 363.009C855.148 363.009 855.547 363.253 855.71 364.003C855.728 364.078 855.782 364.125 855.855 364.125H856.534C856.58 364.125 856.616 364.106 856.643 364.078C856.67 364.041 856.688 364.003 856.679 363.956C856.571 362.663 855.746 362.063 854.069 362.063C852.574 362.063 851.686 362.719 851.686 363.806C851.686 364.997 852.574 365.316 854.006 365.466C855.719 365.644 855.855 365.897 855.855 366.244C855.855 366.853 855.383 367.106 854.278 367.106C852.891 367.106 852.583 366.75 852.483 366.038C852.474 365.963 852.411 365.906 852.329 365.906H851.65C851.568 365.906 851.496 365.972 851.496 366.066C851.496 366.975 851.976 368.063 854.269 368.063C855.945 368.063 856.897 367.388 856.897 366.206V366.206ZM861.836 361.509C861.836 362.081 861.383 362.55 860.83 362.55C860.277 362.55 859.824 362.081 859.824 361.509C859.824 360.919 860.295 360.469 860.83 360.469C861.374 360.459 861.836 360.919 861.836 361.509ZM861.673 361.509C861.673 361.022 861.292 360.638 860.821 360.638C860.359 360.638 859.978 361.022 859.978 361.509C859.978 361.997 860.359 362.391 860.821 362.391C861.292 362.381 861.673 361.988 861.673 361.509ZM861.265 362.091H861.029C861.02 362.034 860.984 361.734 860.984 361.725C860.966 361.659 860.948 361.622 860.866 361.622H860.667V362.091H860.449V360.919H860.839C860.975 360.919 861.238 360.919 861.238 361.228C861.238 361.444 861.102 361.491 861.02 361.519C861.174 361.528 861.183 361.631 861.211 361.781C861.22 361.875 861.238 362.034 861.265 362.091V362.091ZM861.011 361.266C861.011 361.106 860.903 361.106 860.848 361.106H860.667V361.434H860.839C860.984 361.434 861.011 361.331 861.011 361.266V361.266ZM836.443 347.906C836.443 347.653 836.316 347.428 836.108 347.306L830.552 343.997C830.462 343.941 830.353 343.912 830.244 343.903H830.19C830.081 343.903 829.981 343.941 829.882 343.997L824.335 347.306C824.127 347.428 824 347.663 824 347.906L824.009 356.813C824.009 356.934 824.072 357.047 824.172 357.113C824.272 357.178 824.399 357.178 824.508 357.113L827.806 355.153C828.015 355.022 828.142 354.797 828.142 354.553V350.391C828.142 350.147 828.268 349.913 828.477 349.791L829.882 348.956C829.99 348.891 830.099 348.863 830.217 348.863C830.335 348.863 830.453 348.891 830.552 348.956L831.957 349.791C832.165 349.913 832.292 350.147 832.292 350.391V354.553C832.292 354.797 832.419 355.031 832.628 355.153L835.926 357.113C836.026 357.178 836.162 357.178 836.262 357.113C836.361 357.056 836.425 356.934 836.425 356.813L836.443 347.906ZM866.82 338.184V354.722C866.82 354.966 866.693 355.2 866.485 355.322L860.93 358.641C860.721 358.763 860.468 358.763 860.259 358.641L854.704 355.322C854.495 355.2 854.368 354.966 854.368 354.722V348.084C854.368 347.841 854.495 347.606 854.704 347.484L860.259 344.166C860.468 344.044 860.721 344.044 860.93 344.166L862.316 344.991C862.47 345.084 862.67 344.962 862.67 344.784V335.972C862.67 335.709 862.942 335.541 863.168 335.672L866.476 337.584C866.684 337.697 866.82 337.931 866.82 338.184V338.184ZM862.652 350.269C862.652 350.203 862.615 350.147 862.57 350.119L860.667 348.975C860.613 348.947 860.549 348.947 860.495 348.975L858.592 350.119C858.537 350.147 858.51 350.203 858.51 350.269V352.547C858.51 352.613 858.546 352.669 858.592 352.697L860.495 353.831C860.549 353.859 860.613 353.859 860.658 353.831L862.561 352.697C862.615 352.669 862.643 352.613 862.643 352.547V350.269H862.652ZM881.665 350.203C881.873 350.081 882 349.847 882 349.603V348C882 347.756 881.873 347.522 881.665 347.4L876.146 344.081C875.937 343.959 875.683 343.959 875.475 344.081L869.92 347.4C869.711 347.522 869.584 347.756 869.584 348V354.638C869.584 354.891 869.711 355.116 869.92 355.238L875.439 358.491C875.638 358.613 875.892 358.613 876.1 358.491L879.435 356.569C879.662 356.438 879.662 356.1 879.435 355.969L873.844 352.65C873.735 352.584 873.672 352.472 873.672 352.35V350.269C873.672 350.147 873.735 350.034 873.844 349.969L875.584 348.928C875.683 348.863 875.819 348.863 875.919 348.928L877.659 349.969C877.759 350.034 877.831 350.147 877.831 350.269V351.9C877.831 352.163 878.112 352.331 878.339 352.2L881.665 350.203V350.203ZM874.659 350.531C874.623 350.559 874.596 350.597 874.596 350.644V351.919C874.596 351.966 874.623 352.013 874.659 352.031L875.729 352.669C875.765 352.697 875.819 352.697 875.856 352.669L876.925 352.031C876.961 352.003 876.988 351.966 876.988 351.919V350.644C876.988 350.597 876.961 350.55 876.925 350.531L875.856 349.894C875.819 349.866 875.765 349.866 875.729 349.894L874.659 350.531ZM851.622 354.609V348.009C851.622 347.766 851.478 347.531 851.269 347.409L845.732 344.109C845.542 343.997 845.279 343.978 845.061 344.109L839.524 347.409C839.316 347.531 839.171 347.756 839.171 348.009V354.609C839.171 354.872 839.343 355.097 839.533 355.209L845.079 358.509C845.297 358.641 845.551 358.631 845.75 358.509L851.278 355.209C851.441 355.116 851.559 354.956 851.604 354.769C851.613 354.722 851.622 354.666 851.622 354.609ZM844.889 342.9L844.817 342.947H844.916L844.889 342.9V342.9ZM851.795 355.106L851.758 355.041V355.125L851.795 355.106Z" fill="#95A4A6"/>
<path d="M767.062 362.364C765.991 363.887 764.824 365.34 763.568 366.714C766.912 369.96 770.024 371.48 771.748 370.482C773.476 369.486 773.714 366.032 772.576 361.514C770.87 361.894 769.016 362.182 767.062 362.364V362.364ZM764.442 362.538C762.925 362.601 761.407 362.601 759.89 362.538C760.644 363.522 761.406 364.434 762.166 365.266C762.926 364.434 763.686 363.522 764.442 362.538ZM774.522 346.75C779.852 348.278 783.332 350.818 783.332 353.884C783.332 356.95 779.852 359.49 774.522 361.018C775.862 366.398 775.404 370.682 772.75 372.214C770.094 373.748 766.154 372.004 762.166 368.154C758.178 372.004 754.238 373.748 751.582 372.214C748.928 370.682 748.468 366.398 749.81 361.018C744.48 359.49 741 356.95 741 353.884C741 350.818 744.48 348.278 749.81 346.75C748.47 341.37 748.928 337.086 751.582 335.554C754.238 334.02 758.178 335.764 762.166 339.614C766.154 335.764 770.094 334.02 772.75 335.554C775.404 337.086 775.864 341.37 774.522 346.75V346.75ZM772.576 346.254C773.716 341.734 773.476 338.282 771.75 337.286C770.024 336.288 766.912 337.808 763.57 341.054C764.752 342.34 765.928 343.802 767.062 345.404C769.018 345.584 770.87 345.872 772.576 346.254ZM751.756 361.514C750.616 366.034 750.856 369.486 752.582 370.482C754.308 371.48 757.42 369.96 760.762 366.714C759.507 365.34 758.34 363.887 757.27 362.364C755.416 362.199 753.574 361.915 751.756 361.514V361.514ZM759.89 345.23C761.407 345.168 762.925 345.168 764.442 345.23C763.723 344.289 762.964 343.38 762.166 342.504C761.406 343.336 760.646 344.248 759.89 345.232V345.23ZM757.27 345.404C758.342 343.882 759.509 342.429 760.766 341.054C757.42 337.808 754.306 336.288 752.584 337.286C750.856 338.282 750.618 341.736 751.756 346.254C753.462 345.874 755.316 345.586 757.27 345.404V345.404ZM765.954 360.444C767.378 358.355 768.643 356.162 769.74 353.884C768.643 351.606 767.378 349.414 765.954 347.324C763.432 347.136 760.9 347.136 758.378 347.324C756.954 349.414 755.689 351.606 754.592 353.884C755.689 356.162 756.954 358.355 758.378 360.444C760.9 360.633 763.432 360.633 765.954 360.444V360.444ZM768.522 360.182C769.752 360.022 770.922 359.816 772.022 359.574C771.662 358.446 771.254 357.334 770.798 356.24C770.094 357.585 769.335 358.899 768.522 360.18V360.182ZM755.81 347.584C754.58 347.744 753.41 347.95 752.31 348.192C752.65 349.264 753.058 350.38 753.534 351.526C754.238 350.182 754.997 348.868 755.81 347.586V347.584ZM752.31 359.572C753.41 359.814 754.58 360.018 755.81 360.18C754.997 358.899 754.238 357.585 753.534 356.24C753.058 357.384 752.65 358.5 752.31 359.572ZM750.354 359.082C750.876 357.414 751.554 355.666 752.374 353.882C751.554 352.098 750.876 350.35 750.354 348.682C745.87 349.956 743 351.89 743 353.882C743 355.874 745.87 357.808 750.354 359.082ZM772.022 348.192C770.922 347.95 769.752 347.746 768.522 347.584C769.335 348.866 770.094 350.18 770.798 351.524C771.274 350.38 771.682 349.264 772.022 348.192V348.192ZM773.978 348.682C773.456 350.35 772.778 352.098 771.958 353.882C772.778 355.666 773.456 357.414 773.978 359.082C778.462 357.808 781.332 355.874 781.332 353.882C781.332 351.89 778.462 349.956 773.978 348.682ZM762.166 357.644C761.672 357.644 761.183 357.547 760.727 357.358C760.271 357.169 759.856 356.892 759.507 356.543C759.158 356.194 758.881 355.78 758.692 355.323C758.503 354.867 758.406 354.378 758.406 353.884C758.406 353.391 758.503 352.902 758.692 352.446C758.881 351.989 759.158 351.575 759.507 351.226C759.856 350.877 760.271 350.6 760.727 350.411C761.183 350.222 761.672 350.124 762.166 350.124C763.163 350.124 764.12 350.521 764.825 351.226C765.53 351.931 765.926 352.887 765.926 353.884C765.926 354.882 765.53 355.838 764.825 356.543C764.12 357.248 763.163 357.644 762.166 357.644V357.644Z" fill="#95A4A6"/>
<path d="M937.334 368.546L939.346 365.062C941.053 365.781 942.904 366.094 944.753 365.978C946.601 365.863 948.398 365.32 950.003 364.394C951.607 363.468 952.975 362.183 954 360.64C955.025 359.097 955.678 357.338 955.91 355.5H959.934C959.719 357.791 959.01 360.009 957.856 362C957.073 363.359 956.095 364.596 954.952 365.67C954.297 365.47 953.609 365.408 952.929 365.486C952.249 365.564 951.592 365.781 951 366.124C950.408 366.465 949.892 366.925 949.484 367.474C949.077 368.023 948.787 368.65 948.632 369.316C944.898 370.45 940.878 370.176 937.332 368.546H937.334ZM934.734 367.046C931.552 364.79 929.306 361.446 928.422 357.646C929.392 356.734 930 355.44 930 354C930 352.56 929.392 351.262 928.418 350.35C928.777 348.823 929.359 347.358 930.144 346C931.292 344.006 932.858 342.284 934.734 340.952L936.746 344.436C935.27 345.555 934.073 347.001 933.249 348.66C932.425 350.319 931.996 352.147 931.996 353.999C931.996 355.851 932.425 357.679 933.249 359.338C934.073 360.997 935.27 362.443 936.746 363.562L934.736 367.046H934.734ZM937.334 339.454C940.879 337.829 944.896 337.554 948.63 338.68C948.934 339.98 949.754 341.156 951 341.876C952.246 342.596 953.674 342.716 954.952 342.33C957.795 345 959.566 348.617 959.932 352.5H955.906C955.676 350.662 955.023 348.903 953.998 347.36C952.973 345.817 951.605 344.533 950 343.608C948.397 342.68 946.6 342.137 944.752 342.021C942.903 341.904 941.053 342.218 939.346 342.938L937.334 339.454ZM952 340.144C951.656 339.948 951.354 339.687 951.112 339.374C950.869 339.061 950.691 338.704 950.588 338.322C950.484 337.94 950.457 337.542 950.508 337.149C950.559 336.757 950.687 336.379 950.885 336.036C951.083 335.693 951.346 335.393 951.66 335.153C951.975 334.913 952.333 334.737 952.716 334.636C953.098 334.535 953.497 334.51 953.889 334.564C954.281 334.617 954.659 334.748 955 334.948C955.683 335.349 956.181 336.003 956.383 336.769C956.586 337.535 956.477 338.35 956.081 339.036C955.685 339.722 955.033 340.224 954.269 340.431C953.504 340.639 952.689 340.536 952 340.144V340.144ZM928 354C928 354.796 927.684 355.559 927.121 356.121C926.559 356.684 925.796 357 925 357C924.204 357 923.441 356.684 922.879 356.121C922.316 355.559 922 354.796 922 354C922 353.204 922.316 352.441 922.879 351.879C923.441 351.316 924.204 351 925 351C925.796 351 926.559 351.316 927.121 351.879C927.684 352.441 928 353.204 928 354ZM952 367.856C952.341 367.656 952.719 367.525 953.111 367.472C953.503 367.418 953.902 367.443 954.284 367.544C954.667 367.645 955.025 367.821 955.34 368.061C955.654 368.301 955.917 368.601 956.115 368.944C956.313 369.287 956.441 369.665 956.492 370.057C956.543 370.45 956.516 370.848 956.412 371.23C956.309 371.612 956.131 371.969 955.888 372.282C955.646 372.595 955.344 372.856 955 373.052C954.311 373.444 953.496 373.547 952.731 373.339C951.967 373.132 951.315 372.63 950.919 371.944C950.523 371.258 950.414 370.443 950.617 369.677C950.819 368.911 951.317 368.257 952 367.856V367.856Z" fill="#95A4A6"/>
<path d="M1050.18 366.992C1047.57 366.926 1045.55 367.191 1043.86 367.92C1043.37 368.119 1042.58 368.119 1042.52 368.749C1042.78 369.014 1042.81 369.445 1043.04 369.809C1043.43 370.472 1044.12 371.367 1044.74 371.831C1045.42 372.361 1046.11 372.891 1046.82 373.355C1048.1 374.15 1049.53 374.614 1050.77 375.41C1051.49 375.873 1052.21 376.47 1052.92 376.967C1053.28 377.232 1053.51 377.663 1053.97 377.829V377.729C1053.74 377.431 1053.67 377 1053.45 376.669C1053.12 376.337 1052.79 376.039 1052.47 375.708C1051.52 374.416 1050.35 373.289 1049.07 372.361C1048.03 371.632 1045.75 370.638 1045.32 369.411C1045.32 369.411 1045.29 369.379 1045.26 369.345C1045.98 369.279 1046.82 369.014 1047.51 368.815C1048.62 368.517 1049.63 368.583 1050.77 368.285C1051.29 368.152 1051.82 367.987 1052.34 367.821V367.523C1051.75 366.926 1051.33 366.131 1050.71 365.568C1049.04 364.109 1047.22 362.684 1045.32 361.492C1044.31 360.829 1043.01 360.398 1041.93 359.835C1041.54 359.636 1040.89 359.536 1040.66 359.205C1040.07 358.476 1039.74 357.515 1039.32 356.653C1038.38 354.831 1037.46 352.809 1036.65 350.887C1036.06 349.595 1035.7 348.302 1034.98 347.11C1031.62 341.476 1027.97 338.063 1022.36 334.716C1021.15 334.02 1019.72 333.722 1018.18 333.357C1017.37 333.324 1016.55 333.258 1015.74 333.224C1015.21 332.992 1014.69 332.363 1014.24 332.065C1012.38 330.872 1007.58 328.287 1006.21 331.7C1005.33 333.854 1007.52 335.975 1008.27 337.069C1008.82 337.831 1009.54 338.692 1009.93 339.554C1010.16 340.117 1010.22 340.714 1010.45 341.31C1010.97 342.768 1011.46 344.392 1012.15 345.751C1012.51 346.447 1012.9 347.176 1013.35 347.805C1013.62 348.17 1014.07 348.336 1014.17 348.932C1013.71 349.595 1013.68 350.589 1013.42 351.418C1012.25 355.162 1012.7 359.801 1014.37 362.552C1014.89 363.38 1016.13 365.203 1017.79 364.507C1019.26 363.911 1018.93 362.022 1019.36 360.365C1019.45 359.967 1019.39 359.702 1019.59 359.437V359.503C1020.04 360.431 1020.5 361.326 1020.92 362.254C1021.93 363.877 1023.7 365.568 1025.16 366.694C1025.95 367.291 1026.57 368.318 1027.54 368.683V368.583H1027.48C1027.28 368.285 1026.99 368.152 1026.73 367.92C1026.14 367.324 1025.49 366.595 1025.03 365.932C1023.66 364.076 1022.46 362.022 1021.38 359.901C1020.86 358.874 1020.4 357.747 1019.98 356.72C1019.78 356.322 1019.78 355.725 1019.45 355.527C1018.97 356.256 1018.25 356.885 1017.89 357.78C1017.27 359.205 1017.2 360.961 1016.98 362.784C1016.85 362.817 1016.91 362.784 1016.84 362.85C1015.8 362.585 1015.44 361.492 1015.05 360.564C1014.07 358.211 1013.91 354.433 1014.76 351.716C1014.99 351.02 1015.96 348.833 1015.57 348.17C1015.38 347.54 1014.72 347.176 1014.37 346.679C1013.94 346.049 1013.48 345.254 1013.19 344.558C1012.41 342.702 1012.02 340.648 1011.17 338.792C1010.78 337.93 1010.09 337.036 1009.54 336.24C1008.92 335.346 1008.23 334.716 1007.74 333.655C1007.58 333.291 1007.35 332.694 1007.61 332.297C1007.68 332.032 1007.81 331.932 1008.07 331.866C1008.49 331.501 1009.7 331.965 1010.12 332.164C1011.33 332.661 1012.34 333.125 1013.35 333.821C1013.81 334.152 1014.3 334.782 1014.89 334.948H1015.57C1016.62 335.18 1017.79 335.014 1018.77 335.312C1020.5 335.875 1022.06 336.704 1023.47 337.599C1027.74 340.349 1031.26 344.26 1033.64 348.932C1034.04 349.694 1034.2 350.39 1034.56 351.185C1035.24 352.809 1036.09 354.466 1036.78 356.057C1037.46 357.614 1038.11 359.205 1039.09 360.497C1039.58 361.193 1041.54 361.558 1042.42 361.922C1043.07 362.22 1044.08 362.486 1044.67 362.85C1045.78 363.546 1046.89 364.342 1047.93 365.103C1048.46 365.501 1050.09 366.33 1050.18 366.992V366.992Z" fill="#95A4A6"/>
<path d="M1016.91 338.194C1016.36 338.194 1015.96 338.261 1015.57 338.36V338.427H1015.64C1015.9 338.957 1016.36 339.321 1016.68 339.785C1016.94 340.315 1017.17 340.846 1017.43 341.376C1017.46 341.343 1017.5 341.31 1017.5 341.31C1017.95 340.978 1018.18 340.448 1018.18 339.653C1017.99 339.421 1017.95 339.189 1017.79 338.957C1017.6 338.625 1017.17 338.46 1016.91 338.194V338.194Z" fill="#95A4A6"/>
<path d="M1130 377.72C1150.99 377.72 1168 367.038 1168 353.86C1168 340.683 1150.99 330 1130 330C1109.01 330 1092 340.683 1092 353.86C1092 367.038 1109.01 377.72 1130 377.72Z" fill="#E5E5E5"/>
<path fill-rule="evenodd" clip-rule="evenodd" d="M1102.67 367.988L1106.84 342.558H1116.47C1120.63 342.872 1122.71 345.383 1122.71 349.779C1122.71 357.314 1117.77 361.709 1113.34 361.395H1108.66L1107.62 367.988H1102.67ZM1109.7 356.686L1111 347.267H1114.38C1116.21 347.267 1117.51 348.209 1117.51 350.093C1117.25 355.43 1115.16 356.372 1112.82 356.686H1109.7H1109.7ZM1121.74 361.395L1125.91 335.965H1130.85L1129.81 342.558H1134.5C1138.66 342.872 1140.22 345.383 1139.7 348.523L1137.88 361.395H1132.68L1134.5 349.779C1134.76 348.209 1134.76 347.267 1132.94 347.267H1129.03L1126.69 361.395H1121.74V361.395ZM1137.55 367.988L1141.71 342.558H1151.34C1155.51 342.872 1157.59 345.383 1157.59 349.779C1157.59 357.314 1152.64 361.709 1148.22 361.395H1143.53L1142.49 367.988H1137.55V367.988ZM1144.58 356.686L1145.88 347.267H1149.26C1151.08 347.267 1152.38 348.209 1152.38 350.093C1152.12 355.43 1150.04 356.372 1147.7 356.686H1144.58H1144.58Z" fill="#C4C4C4"/>
</g>
<defs>
<filter id="filter0_d" x="-4.5" y="59.5" width="412" height="344" filterUnits="userSpaceOnUse" color-interpolation-filters="sRGB">
<feFlood flood-opacity="0" result="BackgroundImageFix"/>
<feColorMatrix in="SourceAlpha" type="matrix" values="0 0 0 0 0 0 0 0 0 0 0 0 0 0 0 0 0 0 127 0"/>
<feOffset dy="4"/>
<feGaussianBlur stdDeviation="2"/>
<feColorMatrix type="matrix" values="0 0 0 0 0 0 0 0 0 0 0 0 0 0 0 0 0 0 0.25 0"/>
<feBlend mode="normal" in2="BackgroundImageFix" result="effect1_dropShadow"/>
<feBlend mode="normal" in="SourceGraphic" in2="effect1_dropShadow" result="shape"/>
</filter>
<filter id="filter1_i" x="0" y="0" width="532" height="400" filterUnits="userSpaceOnUse" color-interpolation-filters="sRGB">
<feFlood flood-opacity="0" result="BackgroundImageFix"/>
<feBlend mode="normal" in="SourceGraphic" in2="BackgroundImageFix" result="shape"/>
<feColorMatrix in="SourceAlpha" type="matrix" values="0 0 0 0 0 0 0 0 0 0 0 0 0 0 0 0 0 0 127 0" result="hardAlpha"/>
<feOffset dy="4"/>
<feGaussianBlur stdDeviation="2"/>
<feComposite in2="hardAlpha" operator="arithmetic" k2="-1" k3="1"/>
<feColorMatrix type="matrix" values="0 0 0 0 0 0 0 0 0 0 0 0 0 0 0 0 0 0 0.25 0"/>
<feBlend mode="normal" in2="shape" result="effect1_innerShadow"/>
</filter>
<filter id="filter2_d" x="-5" y="-1" width="260" height="219" filterUnits="userSpaceOnUse" color-interpolation-filters="sRGB">
<feFlood flood-opacity="0" result="BackgroundImageFix"/>
<feColorMatrix in="SourceAlpha" type="matrix" values="0 0 0 0 0 0 0 0 0 0 0 0 0 0 0 0 0 0 127 0"/>
<feOffset dy="4"/>
<feGaussianBlur stdDeviation="2"/>
<feColorMatrix type="matrix" values="0 0 0 0 0 0 0 0 0 0 0 0 0 0 0 0 0 0 0.25 0"/>
<feBlend mode="normal" in2="BackgroundImageFix" result="effect1_dropShadow"/>
<feBlend mode="normal" in="SourceGraphic" in2="effect1_dropShadow" result="shape"/>
</filter>
<clipPath id="clip0">
<rect width="1584" height="396" fill="white"/>
</clipPath>
</defs>
</svg>
